<?xml version="1.0" encoding="utf-8"?>
<!-- Generator: Adobe Illustrator 21.0.2, SVG Export Plug-In . SVG Version: 6.00 Build 0)  -->
<svg version="1.1" xmlns="http://www.w3.org/2000/svg" xmlns:xlink="http://www.w3.org/1999/xlink" x="0px" y="0px"
	 viewBox="0 0 1024 504" style="enable-background:new 0 0 1024 504;" xml:space="preserve">
<style type="text/css">
	.st0{fill:#F3D563;}
</style>
<g id="Ñëîé_2">
</g>
<g id="Ñëîé_6">
</g>
<g id="Ñëîé_7">
	<g>
		<path class="st0" d="M124.9-53.2c-0.1,0-0.2,0-0.3,0c-0.1,0-0.2,0-0.4,0H124.9z"/>
		<path class="st0" d="M574.9-53.2c-0.1,0-0.2,0-0.3,0c-0.1,0-0.2,0-0.4,0H574.9z"/>
		<path class="st0" d="M123,59.2c-0.7-0.1-1.4-0.3-2-0.5C121.7,58.9,122.3,59.1,123,59.2z"/>
		<path class="st0" d="M118.8,57.7c-0.2-0.1-0.3-0.2-0.5-0.3C118.5,57.5,118.7,57.6,118.8,57.7z"/>
		<path class="st0" d="M124,59.3c-0.3,0-0.6,0-0.8-0.1C123.4,59.2,123.7,59.3,124,59.3z"/>
		<path class="st0" d="M115.6,54.8c0.7,0.9,1.4,1.6,2.3,2.3L41.8,0h37.5l45.3,34l-6.8,5.1C112.9,42.8,111.9,49.8,115.6,54.8z"/>
		<path class="st0" d="M124.6,59.3c0.1,0,0.2,0,0.3,0c-0.2,0-0.4,0-0.6,0C124.4,59.3,124.5,59.3,124.6,59.3z"/>
		<path class="st0" d="M120.8,58.6c-0.3-0.1-0.5-0.2-0.7-0.3C120.3,58.4,120.6,58.5,120.8,58.6z"/>
		<path class="st0" d="M126.1,59.2c-0.1,0-0.3,0-0.4,0C125.8,59.2,125.9,59.2,126.1,59.2z"/>
		<path class="st0" d="M129.9,58c-0.1,0.1-0.3,0.1-0.4,0.2C129.7,58.1,129.8,58.1,129.9,58z"/>
		<path class="st0" d="M131,57.3c-0.2,0.1-0.3,0.2-0.5,0.3C130.7,57.5,130.9,57.4,131,57.3z"/>
		<path class="st0" d="M127.2,59c-0.1,0-0.2,0-0.3,0.1C127,59,127.1,59,127.2,59z"/>
		<path class="st0" d="M119.8,58.2c-0.2-0.1-0.4-0.2-0.6-0.3C119.4,58,119.6,58.1,119.8,58.2z"/>
		<path class="st0" d="M579.5,58.2c0.1-0.1,0.3-0.1,0.4-0.2C579.8,58.1,579.7,58.1,579.5,58.2z"/>
		<path class="st0" d="M580.6,57.6c0.2-0.1,0.3-0.2,0.5-0.3C580.9,57.4,580.7,57.5,580.6,57.6z"/>
		<path class="st0" d="M576.9,59.1c0.1,0,0.2,0,0.3-0.1C577.1,59,577,59,576.9,59.1z"/>
		<path class="st0" d="M574.9,59.3c-0.2,0-0.4,0-0.6,0c0.1,0,0.2,0,0.3,0C574.7,59.3,574.8,59.3,574.9,59.3z"/>
		<path class="st0" d="M573.2,59.2c0.3,0,0.6,0.1,0.8,0.1C573.7,59.3,573.4,59.2,573.2,59.2z"/>
		<path class="st0" d="M575.6,59.3c0.1,0,0.3,0,0.4,0C575.9,59.2,575.8,59.2,575.6,59.3z"/>
		<path class="st0" d="M568.3,57.4c0.2,0.1,0.3,0.2,0.5,0.3C568.7,57.6,568.5,57.5,568.3,57.4z"/>
		<path class="st0" d="M569.2,57.9c0.2,0.1,0.4,0.2,0.6,0.3C569.6,58.1,569.4,58,569.2,57.9z"/>
		<path class="st0" d="M570.1,58.3c0.2,0.1,0.5,0.2,0.7,0.3C570.6,58.5,570.3,58.4,570.1,58.3z"/>
		<path class="st0" d="M571,58.7c0.7,0.2,1.3,0.4,2,0.5C572.3,59.1,571.7,58.9,571,58.7z"/>
		<path class="st0" d="M170,0h37.5l-76.1,57.1c-0.1,0.1-0.2,0.1-0.3,0.2c-0.2,0.1-0.3,0.2-0.5,0.3c-0.2,0.1-0.4,0.3-0.7,0.4
			c-0.1,0.1-0.3,0.1-0.4,0.2c-0.7,0.4-1.5,0.6-2.3,0.8c-0.1,0-0.2,0-0.3,0.1c-0.3,0.1-0.6,0.1-0.9,0.1c-0.1,0-0.3,0-0.4,0
			c-0.3,0-0.5,0-0.8,0.1h-0.6c-0.1,0-0.2,0-0.3,0c-0.3,0-0.6-0.1-0.9-0.1c-0.1,0-0.1,0-0.1,0c-0.7-0.1-1.4-0.3-2-0.5
			c-0.1,0-0.1,0-0.2-0.1c-0.3-0.1-0.5-0.2-0.7-0.3c-0.1,0-0.2-0.1-0.3-0.1c-0.2-0.1-0.4-0.2-0.6-0.3c-0.1-0.1-0.3-0.1-0.4-0.2
			c-0.2-0.1-0.3-0.2-0.5-0.3c-0.1-0.1-0.3-0.2-0.4-0.3c0,0,0,0-0.1,0c-0.8-0.6-1.6-1.4-2.3-2.3c-3.7-5-2.7-12,2.3-15.8l6.8-5.1
			L170,0z"/>
		<path class="st0" d="M565.6,54.8c0.7,0.9,1.4,1.6,2.3,2.3L491.8,0h37.5l45.3,34l-6.8,5.1C562.9,42.8,561.9,49.8,565.6,54.8z"/>
		<path class="st0" d="M620,0h37.5l-76.1,57.1c-0.1,0.1-0.2,0.1-0.3,0.2c-0.2,0.1-0.3,0.2-0.5,0.3c-0.2,0.1-0.4,0.3-0.7,0.4
			c-0.1,0.1-0.3,0.1-0.4,0.2c-0.7,0.4-1.5,0.6-2.3,0.8c-0.1,0-0.2,0-0.3,0.1c-0.3,0.1-0.6,0.1-0.9,0.1c-0.1,0-0.3,0-0.4,0
			c-0.3,0-0.5,0-0.8,0.1h-0.6c-0.1,0-0.2,0-0.3,0c-0.3,0-0.6-0.1-0.9-0.1c-0.1,0-0.1,0-0.1,0c-0.7-0.1-1.4-0.3-2-0.5
			c-0.1,0-0.1,0-0.2-0.1c-0.3-0.1-0.5-0.2-0.7-0.3c-0.1,0-0.2-0.1-0.3-0.1c-0.2-0.1-0.4-0.2-0.6-0.3c-0.1-0.1-0.3-0.1-0.4-0.2
			c-0.2-0.1-0.3-0.2-0.5-0.3c-0.1-0.1-0.3-0.2-0.4-0.3c0,0,0,0-0.1,0c-0.8-0.6-1.6-1.4-2.3-2.3c-3.7-5-2.7-12,2.3-15.8l6.8-5.1
			L620,0z"/>
		<path class="st0" d="M1024.6,34v25.3c0,0,0,0,0,0c-2.4,0-4.7-0.7-6.7-2.3L941.8,0h37.5L1024.6,34z"/>
		<path class="st0" d="M119.8,170.7c-0.2-0.1-0.4-0.2-0.6-0.3C119.4,170.5,119.6,170.6,119.8,170.7z"/>
		<path class="st0" d="M131,169.8c-0.2,0.1-0.3,0.2-0.5,0.3C130.7,170,130.9,169.9,131,169.8z"/>
		<path class="st0" d="M126.1,171.7c-0.1,0-0.3,0-0.4,0C125.8,171.7,125.9,171.7,126.1,171.7z"/>
		<path class="st0" d="M129.9,170.5c-0.1,0.1-0.3,0.2-0.4,0.2C129.7,170.6,129.8,170.6,129.9,170.5z"/>
		<path class="st0" d="M124,171.8c-0.3,0-0.6,0-0.9-0.1C123.4,171.7,123.7,171.8,124,171.8z"/>
		<path class="st0" d="M124.6,171.8c0.1,0,0.2,0,0.3,0c-0.2,0-0.4,0-0.6,0C124.4,171.8,124.5,171.8,124.6,171.8z"/>
		<path class="st0" d="M118.8,170.2c-0.2-0.1-0.3-0.2-0.5-0.3C118.5,170,118.7,170.1,118.8,170.2z"/>
		<path class="st0" d="M123,171.7c-0.7-0.1-1.4-0.3-2-0.5C121.7,171.4,122.3,171.6,123,171.7z"/>
		<path class="st0" d="M120.8,171.1c-0.3-0.1-0.5-0.2-0.8-0.3C120.3,170.9,120.6,171,120.8,171.1z"/>
		<path class="st0" d="M127.2,171.5c-0.1,0-0.2,0-0.3,0.1C127,171.5,127.1,171.5,127.2,171.5z"/>
		<path class="st0" d="M115.6,167.3c0.7,0.9,1.4,1.6,2.3,2.3L0,81.1V53l124.6,93.5l-6.8,5.1C112.9,155.3,111.9,162.3,115.6,167.3z"
			/>
		<path class="st0" d="M580.6,170.1c0.2-0.1,0.3-0.2,0.5-0.3C580.9,169.9,580.7,170,580.6,170.1z"/>
		<path class="st0" d="M571,171.2c0.7,0.2,1.3,0.4,2,0.5C572.3,171.6,571.7,171.4,571,171.2z"/>
		<path class="st0" d="M573.1,171.7c0.3,0,0.6,0.1,0.9,0.1C573.7,171.8,573.4,171.7,573.1,171.7z"/>
		<path class="st0" d="M574.9,171.8c-0.2,0-0.4,0-0.6,0c0.1,0,0.2,0,0.4,0C574.7,171.8,574.8,171.8,574.9,171.8z"/>
		<path class="st0" d="M575.6,171.8c0.1,0,0.3,0,0.4,0C575.9,171.7,575.8,171.7,575.6,171.8z"/>
		<path class="st0" d="M579.5,170.7c0.1-0.1,0.3-0.1,0.4-0.2C579.8,170.6,579.7,170.6,579.5,170.7z"/>
		<path class="st0" d="M570.1,170.8c0.3,0.1,0.5,0.2,0.8,0.3C570.6,171,570.3,170.9,570.1,170.8z"/>
		<path class="st0" d="M576.9,171.6c0.1,0,0.2,0,0.3-0.1C577.1,171.5,577,171.5,576.9,171.6z"/>
		<path class="st0" d="M569.2,170.4c0.2,0.1,0.4,0.2,0.6,0.3C569.6,170.6,569.4,170.5,569.2,170.4z"/>
		<path class="st0" d="M568.3,169.9c0.2,0.1,0.3,0.2,0.5,0.3C568.7,170.1,568.5,170,568.3,169.9z"/>
		<path class="st0" d="M565.6,167.3c0.7,0.9,1.4,1.6,2.3,2.3L349.6,5.9L131.4,169.6c-0.1,0.1-0.2,0.1-0.3,0.2
			c-0.2,0.1-0.3,0.2-0.5,0.3c-0.2,0.1-0.4,0.2-0.6,0.4c-0.1,0.1-0.3,0.1-0.4,0.2c-0.7,0.4-1.5,0.6-2.3,0.8c-0.1,0-0.2,0-0.3,0.1
			c-0.3,0.1-0.6,0.1-0.9,0.1c-0.1,0-0.3,0-0.4,0c-0.2,0-0.5,0-0.7,0.1h-0.6c-0.1,0-0.2,0-0.3,0c-0.3,0-0.6-0.1-0.9-0.1
			c0,0-0.1,0-0.1,0c-0.7-0.1-1.4-0.3-2-0.5c-0.1,0-0.1,0-0.2-0.1c-0.3-0.1-0.5-0.2-0.8-0.3c-0.1,0-0.2-0.1-0.3-0.1
			c-0.2-0.1-0.4-0.2-0.6-0.3c-0.1-0.1-0.2-0.1-0.4-0.2c-0.2-0.1-0.3-0.2-0.5-0.3c-0.1-0.1-0.3-0.2-0.4-0.3c0,0,0,0-0.1,0
			c-0.8-0.6-1.6-1.4-2.3-2.3c-3.7-5-2.7-12,2.3-15.8l6.8-5.1L320,0h59.3l195.3,146.5l-6.8,5.1C562.9,155.3,561.9,162.3,565.6,167.3z
			"/>
		<path class="st0" d="M1024.6,146.5v25.3c0,0,0,0,0,0c-2.4,0-4.7-0.7-6.7-2.3L799.6,5.9L581.4,169.6c-0.1,0.1-0.2,0.1-0.3,0.2
			c-0.2,0.1-0.3,0.2-0.5,0.3c-0.2,0.1-0.4,0.2-0.6,0.4c-0.1,0.1-0.3,0.1-0.4,0.2c-0.7,0.4-1.5,0.6-2.3,0.8c-0.1,0-0.2,0-0.3,0.1
			c-0.3,0.1-0.6,0.1-0.9,0.1c-0.1,0-0.3,0-0.4,0c-0.2,0-0.5,0-0.7,0.1h-0.6c-0.1,0-0.2,0-0.3,0c-0.3,0-0.6-0.1-0.9-0.1
			c0,0-0.1,0-0.1,0c-0.7-0.1-1.4-0.3-2-0.5c-0.1,0-0.1,0-0.2-0.1c-0.3-0.1-0.5-0.2-0.8-0.3c-0.1,0-0.2-0.1-0.3-0.1
			c-0.2-0.1-0.4-0.2-0.6-0.3c-0.1-0.1-0.2-0.1-0.4-0.2c-0.2-0.1-0.3-0.2-0.5-0.3c-0.1-0.1-0.3-0.2-0.4-0.3c0,0,0,0-0.1,0
			c-0.8-0.6-1.6-1.4-2.3-2.3c-3.7-5-2.7-12,2.3-15.8l6.8-5.1L770,0h59.3L1024.6,146.5z"/>
		<path class="st0" d="M118.8,282.7c-0.2-0.1-0.3-0.2-0.5-0.3C118.5,282.5,118.7,282.6,118.8,282.7z"/>
		<path class="st0" d="M115.6,279.8c0.7,0.9,1.4,1.6,2.3,2.3L0,193.6v-28.1L124.6,259l-6.8,5.1C112.9,267.8,111.9,274.8,115.6,279.8
			z"/>
		<path class="st0" d="M119.8,283.2c-0.2-0.1-0.4-0.2-0.6-0.3C119.4,283,119.6,283.1,119.8,283.2z"/>
		<path class="st0" d="M120.8,283.6c-0.2-0.1-0.5-0.2-0.7-0.3C120.3,283.4,120.6,283.5,120.8,283.6z"/>
		<path class="st0" d="M129.9,283c-0.1,0.1-0.3,0.2-0.4,0.2C129.7,283.1,129.8,283.1,129.9,283z"/>
		<path class="st0" d="M131,282.3c-0.2,0.1-0.3,0.2-0.5,0.3C130.7,282.5,130.9,282.4,131,282.3z"/>
		<path class="st0" d="M123,284.2c-0.7-0.1-1.4-0.3-2-0.5C121.7,283.9,122.3,284.1,123,284.2z"/>
		<path class="st0" d="M127.2,284c-0.1,0-0.2,0-0.3,0.1C127,284,127.1,284,127.2,284z"/>
		<path class="st0" d="M126.1,284.2c-0.1,0-0.3,0-0.4,0C125.8,284.2,125.9,284.2,126.1,284.2z"/>
		<path class="st0" d="M124.6,284.3c0.1,0,0.2,0,0.3,0c-0.2,0-0.4,0-0.6,0C124.4,284.3,124.5,284.3,124.6,284.3z"/>
		<path class="st0" d="M124,284.3c-0.3,0-0.6,0-0.9-0.1C123.4,284.2,123.7,284.3,124,284.3z"/>
		<path class="st0" d="M576.9,284.1c0.1,0,0.2,0,0.3-0.1C577.1,284,577,284,576.9,284.1z"/>
		<path class="st0" d="M575.6,284.3c0.1,0,0.3,0,0.4,0C575.9,284.2,575.8,284.2,575.6,284.3z"/>
		<path class="st0" d="M579.5,283.2c0.1-0.1,0.3-0.1,0.4-0.2C579.8,283.1,579.7,283.1,579.5,283.2z"/>
		<path class="st0" d="M580.6,282.6c0.2-0.1,0.3-0.2,0.5-0.3C580.9,282.4,580.7,282.5,580.6,282.6z"/>
		<path class="st0" d="M573.2,284.2c0.3,0,0.6,0.1,0.9,0.1C573.7,284.3,573.4,284.2,573.2,284.2z"/>
		<path class="st0" d="M569.2,282.9c0.2,0.1,0.4,0.2,0.6,0.3C569.6,283.1,569.4,283,569.2,282.9z"/>
		<path class="st0" d="M568.4,282.4c0.2,0.1,0.3,0.2,0.5,0.3C568.7,282.6,568.5,282.5,568.4,282.4z"/>
		<path class="st0" d="M570.1,283.3c0.2,0.1,0.5,0.2,0.7,0.3C570.6,283.5,570.3,283.4,570.1,283.3z"/>
		<path class="st0" d="M571,283.7c0.7,0.2,1.3,0.4,2,0.5C572.3,284.1,571.7,283.9,571,283.7z"/>
		<path class="st0" d="M574.9,284.3c-0.2,0-0.4,0-0.6,0c0.1,0,0.2,0,0.3,0C574.7,284.3,574.8,284.3,574.9,284.3z"/>
		<path class="st0" d="M115.6,279.8c0.7,0.9,1.5,1.7,2.3,2.3c0.1,0.1,0.3,0.2,0.4,0.3c0.2,0.1,0.3,0.2,0.5,0.3
			c0.1,0.1,0.3,0.1,0.4,0.2c0.2,0.1,0.4,0.2,0.6,0.3c0.1,0.1,0.2,0.1,0.3,0.1c0.2,0.1,0.5,0.2,0.7,0.3c0.1,0,0.1,0,0.2,0.1
			c0.7,0.2,1.3,0.4,2,0.5c0,0,0.1,0,0.1,0c0.3,0,0.6,0.1,0.9,0.1c0.1,0,0.2,0,0.3,0c0.2,0,0.4,0,0.6,0c0.3,0,0.5,0,0.8,0
			c0.1,0,0.3,0,0.4,0c0.3,0,0.6-0.1,0.9-0.1c0.1,0,0.2,0,0.3-0.1c0.8-0.2,1.5-0.5,2.3-0.8c0.1-0.1,0.3-0.1,0.4-0.2
			c0.2-0.1,0.4-0.2,0.6-0.4c0.2-0.1,0.3-0.2,0.5-0.3c0.1-0.1,0.2-0.1,0.3-0.2l218.3-163.7l218.3,163.7c0,0,0,0,0.1,0
			c-0.9-0.6-1.6-1.4-2.3-2.3c-3.7-5-2.7-12,2.3-15.8l6.8-5.1L356.4,95.3c-4-3-9.5-3-13.5,0L124.6,259l-6.8,5.1
			C112.9,267.8,111.9,274.8,115.6,279.8z"/>
		<path class="st0" d="M792.9,95.3L574.6,259l-6.8,5.1c-5,3.7-6,10.8-2.3,15.8c0.7,0.9,1.5,1.7,2.3,2.3c0.1,0.1,0.3,0.2,0.4,0.3
			c0.2,0.1,0.3,0.2,0.5,0.3c0.1,0.1,0.3,0.1,0.4,0.2c0.2,0.1,0.4,0.2,0.6,0.3c0.1,0.1,0.2,0.1,0.3,0.1c0.2,0.1,0.5,0.2,0.7,0.3
			c0.1,0,0.1,0,0.2,0.1c0.7,0.2,1.3,0.4,2,0.5c0,0,0.1,0,0.1,0c0.3,0,0.6,0.1,0.9,0.1c0.1,0,0.2,0,0.3,0c0.2,0,0.4,0,0.6,0
			c0.3,0,0.5,0,0.8,0c0.1,0,0.3,0,0.4,0c0.3,0,0.6-0.1,0.9-0.1c0.1,0,0.2,0,0.3-0.1c0.8-0.2,1.5-0.5,2.3-0.8
			c0.1-0.1,0.3-0.1,0.4-0.2c0.2-0.1,0.4-0.2,0.6-0.4c0.2-0.1,0.3-0.2,0.5-0.3c0.1-0.1,0.2-0.1,0.3-0.2l218.3-163.7l218.3,163.7
			c2,1.5,4.4,2.3,6.7,2.3c0,0,0,0,0,0V259L806.4,95.3C802.4,92.3,796.9,92.3,792.9,95.3z"/>
		<path class="st0" d="M124.6,396.8c0.1,0,0.2,0,0.3,0c-0.2,0-0.4,0-0.6,0C124.4,396.8,124.5,396.8,124.6,396.8z"/>
		<path class="st0" d="M126.1,396.7c-0.1,0-0.3,0-0.4,0C125.8,396.7,125.9,396.7,126.1,396.7z"/>
		<path class="st0" d="M119.8,395.7c-0.2-0.1-0.4-0.2-0.6-0.3C119.4,395.5,119.6,395.6,119.8,395.7z"/>
		<path class="st0" d="M115.6,392.3c0.7,0.9,1.4,1.6,2.3,2.3L0,306.1V278l124.6,93.5l-6.8,5.1C112.9,380.3,111.9,387.3,115.6,392.3z
			"/>
		<path class="st0" d="M123,396.7c-0.7-0.1-1.4-0.3-2-0.5C121.7,396.4,122.3,396.6,123,396.7z"/>
		<path class="st0" d="M124,396.8c-0.3,0-0.6,0-0.8-0.1C123.4,396.7,123.7,396.8,124,396.8z"/>
		<path class="st0" d="M131,394.8c-0.2,0.1-0.3,0.2-0.5,0.3C130.7,395,130.9,394.9,131,394.8z"/>
		<path class="st0" d="M129.9,395.5c-0.1,0.1-0.3,0.1-0.4,0.2C129.7,395.6,129.8,395.6,129.9,395.5z"/>
		<path class="st0" d="M120.8,396.1c-0.3-0.1-0.5-0.2-0.7-0.3C120.3,395.9,120.6,396,120.8,396.1z"/>
		<path class="st0" d="M127.2,396.5c-0.1,0-0.2,0-0.3,0.1C127,396.5,127.1,396.5,127.2,396.5z"/>
		<path class="st0" d="M118.8,395.2c-0.2-0.1-0.3-0.2-0.5-0.3C118.5,395,118.7,395.1,118.8,395.2z"/>
		<path class="st0" d="M574.9,396.8c-0.2,0-0.4,0-0.6,0c0.1,0,0.2,0,0.3,0C574.7,396.8,574.8,396.8,574.9,396.8z"/>
		<path class="st0" d="M569.2,395.4c0.2,0.1,0.4,0.2,0.6,0.3C569.6,395.6,569.4,395.5,569.2,395.4z"/>
		<path class="st0" d="M571,396.2c0.7,0.2,1.3,0.4,2,0.5C572.3,396.6,571.7,396.4,571,396.2z"/>
		<path class="st0" d="M570.1,395.8c0.2,0.1,0.5,0.2,0.7,0.3C570.6,396,570.3,395.9,570.1,395.8z"/>
		<path class="st0" d="M568.3,394.9c0.2,0.1,0.3,0.2,0.5,0.3C568.7,395.1,568.5,395,568.3,394.9z"/>
		<path class="st0" d="M579.5,395.7c0.1-0.1,0.3-0.1,0.4-0.2C579.8,395.6,579.7,395.6,579.5,395.7z"/>
		<path class="st0" d="M573.2,396.7c0.3,0,0.6,0.1,0.8,0.1C573.7,396.8,573.4,396.7,573.2,396.7z"/>
		<path class="st0" d="M576.9,396.6c0.1,0,0.2,0,0.3-0.1C577.1,396.5,577,396.5,576.9,396.6z"/>
		<path class="st0" d="M580.6,395.1c0.2-0.1,0.3-0.2,0.5-0.3C580.9,394.9,580.7,395,580.6,395.1z"/>
		<path class="st0" d="M575.6,396.8c0.1,0,0.3,0,0.4,0C575.9,396.7,575.8,396.7,575.6,396.8z"/>
		<path class="st0" d="M115.6,392.3c0.7,0.9,1.5,1.7,2.3,2.3c0.1,0.1,0.3,0.2,0.4,0.3c0.2,0.1,0.3,0.2,0.5,0.3
			c0.1,0.1,0.2,0.1,0.4,0.2c0.2,0.1,0.4,0.2,0.6,0.3c0.1,0,0.2,0.1,0.3,0.1c0.2,0.1,0.5,0.2,0.7,0.3c0.1,0,0.1,0,0.2,0.1
			c0.7,0.2,1.3,0.4,2,0.5c0,0,0.1,0,0.1,0c0.3,0,0.6,0.1,0.8,0.1c0.1,0,0.2,0,0.3,0c0.2,0,0.4,0,0.6,0c0.3,0,0.5,0,0.8,0
			c0.1,0,0.3,0,0.4,0c0.3,0,0.6-0.1,0.9-0.2c0.1,0,0.2,0,0.3-0.1c0.8-0.2,1.5-0.5,2.3-0.8c0.1-0.1,0.3-0.1,0.4-0.2
			c0.2-0.1,0.4-0.2,0.6-0.4c0.2-0.1,0.3-0.2,0.5-0.3c0.1-0.1,0.2-0.1,0.3-0.2l218.3-163.7l218.3,163.7c0,0,0,0,0.1,0
			c-0.9-0.6-1.6-1.4-2.3-2.3c-3.7-5-2.7-12,2.3-15.8l6.8-5.1L356.4,207.8c-4-3-9.5-3-13.5,0L124.6,371.5l-6.8,5.1
			C112.9,380.3,111.9,387.3,115.6,392.3z"/>
		<path class="st0" d="M792.9,207.8L574.6,371.5l-6.8,5.1c-5,3.7-6,10.8-2.3,15.8c0.7,0.9,1.5,1.7,2.3,2.3c0.1,0.1,0.3,0.2,0.4,0.3
			c0.2,0.1,0.3,0.2,0.5,0.3c0.1,0.1,0.2,0.1,0.4,0.2c0.2,0.1,0.4,0.2,0.6,0.3c0.1,0,0.2,0.1,0.3,0.1c0.2,0.1,0.5,0.2,0.7,0.3
			c0.1,0,0.1,0,0.2,0.1c0.7,0.2,1.3,0.4,2,0.5c0,0,0.1,0,0.1,0c0.3,0,0.6,0.1,0.8,0.1c0.1,0,0.2,0,0.3,0c0.2,0,0.4,0,0.6,0
			c0.3,0,0.5,0,0.8,0c0.1,0,0.3,0,0.4,0c0.3,0,0.6-0.1,0.9-0.2c0.1,0,0.2,0,0.3-0.1c0.8-0.2,1.5-0.5,2.3-0.8
			c0.1-0.1,0.3-0.1,0.4-0.2c0.2-0.1,0.4-0.2,0.6-0.4c0.2-0.1,0.3-0.2,0.5-0.3c0.1-0.1,0.2-0.1,0.3-0.2l218.3-163.7l218.3,163.7
			c2,1.5,4.4,2.3,6.7,2.3c0,0,0,0,0,0v-25.3L806.4,207.8C802.4,204.8,796.9,204.8,792.9,207.8z"/>
		<path class="st0" d="M124.9,509.3c-0.1,0-0.2,0-0.3,0c-0.1,0-0.2,0-0.4,0H124.9z"/>
		<path class="st0" d="M114.6,503c0.3,0.6,0.7,1.2,1.1,1.8c0.7,0.9,1.4,1.6,2.3,2.3l-5.4-4.1L0,418.6v-28.1L124.6,484l-6.8,5.1
			C113.5,492.4,112.2,498.3,114.6,503z"/>
		<path class="st0" d="M574.9,509.3c-0.1,0-0.2,0-0.3,0c-0.1,0-0.2,0-0.4,0H574.9z"/>
		<path class="st0" d="M574.6,484l-6.8,5.1c-4.4,3.3-5.7,9.2-3.3,13.9h-2.1L349.6,343.4L136.8,503h-22.3c-2.3-4.8-1-10.7,3.3-13.9
			l6.8-5.1l218.3-163.7c4-3,9.5-3,13.5,0L574.6,484z"/>
		<path class="st0" d="M1024.6,484v19h-12.1L799.6,343.4L586.8,503h-22.3c-2.3-4.8-1-10.7,3.3-13.9l6.8-5.1l218.3-163.7
			c4-3,9.5-3,13.5,0L1024.6,484z"/>
		<path class="st0" d="M574.9,621.8c-0.1,0-0.2,0-0.2,0c-0.1,0-0.2,0-0.3,0H574.9z"/>
		<path class="st0" d="M450,503h-37.5l-62.9-47.1L286.8,503h-37.5l93.6-70.2c4-3,9.5-3,13.5,0L450,503z"/>
		<path class="st0" d="M900,503h-37.5l-62.9-47.1L736.8,503h-37.5l93.6-70.2c4-3,9.5-3,13.5,0L900,503z"/>
		<path class="st0" d="M124.9,734.3c-0.1,0-0.2,0-0.3,0c-0.1,0-0.2,0-0.4,0H124.9z"/>
		<path class="st0" d="M574.9,734.3c-0.1,0-0.2,0-0.3,0c-0.1,0-0.2,0-0.4,0H574.9z"/>
		<path class="st0" d="M124.9,846.8c-0.1,0-0.2,0-0.3,0c-0.1,0-0.2,0-0.4,0H124.9z"/>
		<path class="st0" d="M574.9,959.3c-0.1,0-0.2,0-0.2,0c-0.1,0-0.2,0-0.3,0H574.9z"/>
		<path class="st0" d="M574.9,1071.8c-0.1,0-0.2,0-0.3,0c-0.1,0-0.2,0-0.4,0H574.9z"/>
		<path class="st0" d="M574.9,1184.3c-0.1,0-0.2,0-0.3,0c-0.1,0-0.2,0-0.4,0H574.9z"/>
	</g>
	<path d="M124.3-53.2h0.6c-0.1,0-0.2,0-0.3,0C124.5-53.2,124.4-53.2,124.3-53.2z"/>
	<path d="M574.9-53.2c-0.1,0-0.2,0-0.3,0c-0.1,0-0.2,0-0.4,0H574.9z"/>
	<path d="M117.9,507.1l-5.4-4.1h2.1c0.3,0.6,0.7,1.2,1.1,1.8C116.3,505.7,117.1,506.4,117.9,507.1z"/>
	<path d="M124.9,509.3c-0.1,0-0.2,0-0.3,0c-0.1,0-0.2,0-0.4,0H124.9z"/>
	<path d="M124.9,846.8c-0.1,0-0.2,0-0.3,0c-0.1,0-0.2,0-0.4,0H124.9z"/>
	<path d="M124.9,734.3c-0.1,0-0.2,0-0.3,0c-0.1,0-0.2,0-0.4,0H124.9z"/>
	<path d="M574.9,509.3c-0.1,0-0.2,0-0.3,0c-0.1,0-0.2,0-0.4,0H574.9z"/>
	<path d="M574.9,959.3c-0.1,0-0.2,0-0.2,0c-0.1,0-0.2,0-0.3,0H574.9z"/>
	<path d="M574.9,621.8c-0.1,0-0.2,0-0.2,0c-0.1,0-0.2,0-0.3,0H574.9z"/>
	<path d="M574.9,1184.3c-0.1,0-0.2,0-0.3,0c-0.1,0-0.2,0-0.4,0H574.9z"/>
	<path d="M574.9,1071.8c-0.1,0-0.2,0-0.3,0c-0.1,0-0.2,0-0.4,0H574.9z"/>
	<path d="M574.9,734.3c-0.1,0-0.2,0-0.3,0c-0.1,0-0.2,0-0.4,0H574.9z"/>
	<path d="M117.9,507.1l-5.4-4.1h2.1c0.3,0.6,0.7,1.2,1.1,1.8C116.3,505.7,117.1,506.4,117.9,507.1z"/>
	<path d="M124.3,846.8h0.6c-0.1,0-0.2,0-0.3,0C124.5,846.8,124.4,846.8,124.3,846.8z"/>
	<path d="M124.3,734.3h0.6c-0.1,0-0.2,0-0.3,0C124.5,734.3,124.4,734.3,124.3,734.3z"/>
	<path d="M124.3,509.3h0.6c-0.1,0-0.2,0-0.3,0C124.5,509.3,124.4,509.3,124.3,509.3z"/>
	<path d="M574.9,959.3c-0.1,0-0.2,0-0.2,0c-0.1,0-0.2,0-0.3,0H574.9z"/>
	<path d="M574.3,621.8h0.6c-0.1,0-0.2,0-0.2,0C574.5,621.8,574.4,621.8,574.3,621.8z"/>
	<path d="M574.3,1184.3h0.6c-0.1,0-0.2,0-0.3,0C574.5,1184.3,574.4,1184.3,574.3,1184.3z"/>
	<path d="M574.3,1071.8h0.6c-0.1,0-0.2,0-0.3,0C574.5,1071.8,574.4,1071.8,574.3,1071.8z"/>
	<path d="M574.3,734.3h0.6c-0.1,0-0.2,0-0.3,0C574.5,734.3,574.4,734.3,574.3,734.3z"/>
	<path d="M574.6,509.3c-0.1,0-0.2,0-0.4,0h0.6C574.8,509.3,574.7,509.3,574.6,509.3z"/>
</g>
<g id="Ñëîé_8">
</g>
</svg>
