<?xml version="1.0" encoding="utf-8"?>
<!-- Generator: Adobe Illustrator 21.0.2, SVG Export Plug-In . SVG Version: 6.00 Build 0)  -->
<svg version="1.1" id="Capa_1" xmlns="http://www.w3.org/2000/svg" xmlns:xlink="http://www.w3.org/1999/xlink" x="0px" y="0px"
	 viewBox="0 0 30 28" style="enable-background:new 0 0 30 28;" xml:space="preserve">
<g>
	<path d="M27.6,2.6C26,0.9,23.9,0,21.7,0s-4.3,0.9-5.9,2.6L15,3.5l-0.8-0.9C12.6,0.9,10.5,0,8.3,0C6.1,0,4,0.9,2.4,2.6
		C0.9,4.2,0,6.5,0,8.8c0,2.4,0.9,4.6,2.4,6.2l11.9,12.7c0.2,0.2,0.4,0.3,0.6,0.3s0.4-0.1,0.6-0.3l12-12.7c1.6-1.7,2.4-3.9,2.4-6.2
		C30,6.5,29.1,4.3,27.6,2.6z M26.4,13.8L15,25.8l-11.3-12c-1.2-1.3-1.9-3.1-1.9-4.9s0.7-3.6,1.9-4.9c1.2-1.3,2.9-2,4.6-2
		c1.8,0,3.4,0.7,4.7,2.1l1.4,1.5c0.3,0.4,0.9,0.4,1.2,0L17,3.9c1.2-1.3,2.9-2.1,4.7-2.1c1.8,0,3.4,0.7,4.7,2
		c1.2,1.3,1.9,3.1,1.9,4.9C28.3,10.7,27.6,12.5,26.4,13.8z"/>
</g>
</svg>
