<?xml version="1.0" encoding="utf-8"?>
<!-- Generator: Adobe Illustrator 21.0.2, SVG Export Plug-In . SVG Version: 6.00 Build 0)  -->
<svg version="1.1" id="Layer_1" xmlns="http://www.w3.org/2000/svg" xmlns:xlink="http://www.w3.org/1999/xlink" x="0px" y="0px"
	 viewBox="0 0 16 20" style="enable-background:new 0 0 16 20;" xml:space="preserve">
<style type="text/css">
	.st0{clip-path:url(#SVGID_2_);fill:#FFFFFF;}
</style>
<g>
	<g>
		<defs>
			<rect id="SVGID_1_" width="16" height="20"/>
		</defs>
		<clipPath id="SVGID_2_">
			<use xlink:href="#SVGID_1_"  style="overflow:visible;"/>
		</clipPath>
		<path class="st0" d="M7.9,11.7h0.1c1.1,0,2.1-0.4,2.7-1.3C12.3,8.6,12,5.6,12,5.3c-0.1-2.2-1.1-3.3-1.9-3.7C9.5,1.2,8.8,1,8,1H8
			C7.5,1,6.7,1,5.9,1.5C5.1,2,4.1,3.1,4,5.3c0,0.3-0.3,3.4,1.2,5.2C5.9,11.2,6.8,11.7,7.9,11.7L7.9,11.7z M5,5.4C5,5.4,5,5.4,5,5.4
			c0.1-3,2.1-3.3,3-3.3h0c1.1,0,2.8,0.5,3,3.3c0,0,0,0,0,0c0,0,0.3,2.8-1,4.3c-0.5,0.6-1.1,0.9-2,0.9h0c-0.9,0-1.5-0.3-2-0.9
			C4.7,8.2,5,5.4,5,5.4L5,5.4z M5,5.4"/>
		<path class="st0" d="M16,15.9L16,15.9c0,0,0-0.1,0-0.1c0-0.8-0.1-2.7-1.8-3.3c0,0,0,0,0,0c-1.8-0.5-3.2-1.5-3.2-1.6
			c-0.2-0.2-0.6-0.1-0.7,0.1c-0.2,0.3-0.1,0.6,0.1,0.8c0.1,0,1.6,1.2,3.6,1.7c0.9,0.3,1,1.4,1,2.3c0,0,0,0.1,0,0.1
			c0,0.4,0,0.9-0.1,1.3c-0.6,0.4-3.1,1.7-6.9,1.7c-3.7,0-6.2-1.3-6.9-1.7C1.1,16.8,1,16.2,1,15.9c0,0,0-0.1,0-0.1c0-0.9,0.1-2,1-2.3
			c1.9-0.5,3.5-1.7,3.6-1.7c0.2-0.2,0.3-0.5,0.1-0.8c-0.2-0.3-0.5-0.3-0.7-0.1c0,0-1.5,1.1-3.2,1.6c0,0,0,0,0,0
			C0.1,13,0,14.9,0,15.7c0,0,0,0.1,0,0.1v0c0,0.2,0,1.3,0.2,1.9c0,0.1,0.1,0.2,0.2,0.3c0.1,0.1,2.9,2,7.6,2s7.5-1.9,7.6-2
			c0.1-0.1,0.2-0.2,0.2-0.3C16,17.2,16,16.1,16,15.9L16,15.9z M16,15.9"/>
	</g>
</g>
</svg>
