<?xml version="1.0" encoding="utf-8"?>
<!-- Generator: Adobe Illustrator 21.0.2, SVG Export Plug-In . SVG Version: 6.00 Build 0)  -->
<svg version="1.1" id="Capa_1" xmlns="http://www.w3.org/2000/svg" xmlns:xlink="http://www.w3.org/1999/xlink" x="0px" y="0px"
	 viewBox="0 0 23 21" style="enable-background:new 0 0 23 21;" xml:space="preserve">
<g>
	<g>
		<g id="Icons_18_">
			<path d="M-399.2-38c0-73.5-59.6-133.1-133.1-133.1c-48,0-89.9,25.5-113.3,63.6C-669-145.6-710.9-171-758.9-171
				c-73.5,0-133,59.6-133,133.1c0,40,17.7,75.8,45.7,100.2l188.5,188.6c3.2,3.2,7.6,5,12.1,5s8.9-1.8,12.1-5l188.5-188.6
				C-417,37.8-399.2,2-399.2-38z"/>
		</g>
	</g>
	<g>
		<g id="Icons_1_">
			<path d="M23.2,6.5c0-3.6-2.8-6.5-6.3-6.5c-2.3,0-4.2,1.3-5.3,3.1C10.5,1.2,8.5,0,6.3,0C2.8,0,0,2.9,0,6.5c0,2,0.8,3.7,2.2,4.9
				l8.9,9.3c0.2,0.2,0.4,0.2,0.6,0.2s0.4-0.1,0.6-0.2l8.9-9.3C22.4,10.2,23.2,8.5,23.2,6.5z"/>
		</g>
	</g>
</g>
</svg>
