<?xml version="1.0" encoding="utf-8"?>
<!-- Generator: Adobe Illustrator 21.0.2, SVG Export Plug-In . SVG Version: 6.00 Build 0)  -->
<svg version="1.1" id="Layer_1" xmlns="http://www.w3.org/2000/svg" xmlns:xlink="http://www.w3.org/1999/xlink" x="0px" y="0px"
	 viewBox="0 0 20 20" style="enable-background:new 0 0 20 20;" xml:space="preserve">
<style type="text/css">
	.st0{clip-path:url(#SVGID_2_);fill:#FFFFFF;}
</style>
<g>
	<g>
		<defs>
			<rect id="SVGID_1_" width="20" height="20"/>
		</defs>
		<clipPath id="SVGID_2_">
			<use xlink:href="#SVGID_1_"  style="overflow:visible;"/>
		</clipPath>
		<path class="st0" d="M19.8,19L15,14.1c1.3-1.5,2.1-3.5,2.1-5.6c0-4.7-3.8-8.5-8.5-8.5C3.8,0,0,3.8,0,8.5s3.8,8.5,8.5,8.5
			c2.1,0,4.1-0.8,5.6-2.1l4.9,4.9c0.1,0.1,0.3,0.2,0.4,0.2c0.2,0,0.3-0.1,0.4-0.2C20.1,19.6,20.1,19.2,19.8,19L19.8,19z M1.2,8.5
			c0-4,3.3-7.3,7.3-7.3c4,0,7.3,3.3,7.3,7.3s-3.3,7.3-7.3,7.3C4.5,15.9,1.2,12.6,1.2,8.5L1.2,8.5z M1.2,8.5"/>
	</g>
</g>
</svg>
