<?xml version="1.0" encoding="utf-8"?>
<!-- Generator: Adobe Illustrator 21.0.2, SVG Export Plug-In . SVG Version: 6.00 Build 0)  -->
<svg version="1.1" id="Layer_1" xmlns="http://www.w3.org/2000/svg" xmlns:xlink="http://www.w3.org/1999/xlink" x="0px" y="0px"
	 viewBox="0 0 16 15" style="enable-background:new 0 0 16 15;" xml:space="preserve">
<style type="text/css">
	.st0{clip-path:url(#SVGID_2_);}
</style>
<g>
	<g>
		<defs>
			<rect id="SVGID_1_" width="16" height="15"/>
		</defs>
		<clipPath id="SVGID_2_">
			<use xlink:href="#SVGID_1_"  style="overflow:visible;"/>
		</clipPath>
		<path class="st0" d="M16,5.7c-0.1-0.2-0.2-0.3-0.4-0.3l-5-0.7L8.4,0.3C8.3,0.1,8.2,0,8,0C7.8,0,7.7,0.1,7.6,0.3L5.4,4.7l-5,0.7
			C0.2,5.5,0.1,5.6,0,5.7C0,5.9,0,6.1,0.1,6.2l3.6,3.4l-0.8,4.9c0,0.2,0,0.3,0.2,0.4C3.2,14.9,3.3,15,3.4,15c0.1,0,0.1,0,0.2-0.1
			L8,12.6l4.5,2.3c0.1,0,0.1,0,0.2,0c0.2,0,0.4-0.2,0.4-0.4c0,0,0-0.1,0-0.1l-0.9-4.8l3.6-3.4C16,6,16,5.8,16,5.7L16,5.7z M11.5,9.1
			c-0.1,0.1-0.2,0.2-0.1,0.4l0.8,4.2l-3.9-2c-0.1-0.1-0.3-0.1-0.4,0l-3.9,2l0.7-4.2c0-0.1,0-0.3-0.1-0.4l-3.1-3l4.3-0.6
			c0.1,0,0.3-0.1,0.3-0.2L8,1.4l2,3.8c0.1,0.1,0.2,0.2,0.3,0.2l4.3,0.6L11.5,9.1z M11.5,9.1"/>
	</g>
</g>
</svg>
