<?xml version="1.0" encoding="utf-8"?>
<!-- Generator: Adobe Illustrator 21.0.2, SVG Export Plug-In . SVG Version: 6.00 Build 0)  -->
<svg version="1.1" id="Layer_1" xmlns="http://www.w3.org/2000/svg" xmlns:xlink="http://www.w3.org/1999/xlink" x="0px" y="0px"
	 viewBox="0 0 45 44" style="enable-background:new 0 0 45 44;" xml:space="preserve">
<style type="text/css">
	.st0{fill:#44678D;}
	.st1{fill:#FFFFFF;}
</style>
<path class="st0" d="M41.1,0H3.8C1.6,0,0,1.6,0,3.7v36.6c0,2,1.6,3.7,3.8,3.7h37.4c2,0,3.8-1.6,3.8-3.7V3.7C44.9,1.6,43.3,0,41.1,0z
	"/>
<path class="st1" d="M13.2,14.6c0.9,2.2,2.1,4.4,3.7,6.3c0.2,0.3,0.5,0.5,0.7,0.7c0.4,0.3,0.8,0.2,0.9-0.3c0.2-0.5,0.3-1.4,0.3-1.9
	c0-1.3,0-2.1-0.1-3.4c0-0.8-0.3-1.5-1.5-1.8c-0.4-0.1-0.4-0.4-0.2-0.7c0.5-0.6,1.2-0.7,2-0.8c1.2-0.1,2.6,0,3.8,0c0.5,0,1,0,1.5,0.2
	c0.6,0.1,1,0.6,1.1,1.2c0.1,0.3,0.1,0.7,0.1,1c0,1.4-0.1,2.8-0.1,4.2c0,0.6,0,1.1,0.2,1.7c0.2,0.7,0.7,0.9,1.2,0.4
	c0.7-0.7,1.2-1.5,1.8-2.2c1-1.4,1.7-3,2.4-4.6c0.3-0.8,0.6-1,1.5-1c1.7,0,3.5,0,5.2,0c0.3,0,0.6,0,0.9,0.1c0.5,0.1,0.6,0.5,0.5,1
	c-0.3,1.1-0.9,2.1-1.5,3c-1,1.5-2.1,2.9-3.3,4.3c-0.1,0.2-0.3,0.4-0.4,0.6c-0.4,0.7-0.4,1.1,0.2,1.7c0.9,0.9,1.9,1.8,2.9,2.8
	c0.6,0.7,1.2,1.5,1.8,2.3c0.6,1,0.2,2-1,2.2c-0.8,0.1-4.6,0-4.8,0c-1,0-1.9-0.4-2.7-1c-0.8-0.8-1.5-1.6-2.2-2.4
	c-0.2-0.2-0.5-0.5-0.7-0.7c-0.6-0.5-1.2-0.4-1.5,0.4c-0.2,0.6-0.5,2.3-0.5,2.4c-0.1,0.7-0.5,1.2-1.3,1.2c-2.4,0.1-4.7-0.1-6.9-1.3
	c-1.8-1-3.3-2.3-4.6-3.9c-2-2.5-3.6-5.3-5.1-8.2C7.4,18,6,14.9,5.9,14.7c-0.1-0.5,0-1,0.4-1.1c0.3-0.1,5.1,0,5.2,0
	C12.2,13.5,12.8,13.8,13.2,14.6z"/>
</svg>
