<?xml version="1.0" encoding="utf-8"?>
<!-- Generator: Adobe Illustrator 21.0.2, SVG Export Plug-In . SVG Version: 6.00 Build 0)  -->
<svg version="1.1" id="Layer_1" xmlns="http://www.w3.org/2000/svg" xmlns:xlink="http://www.w3.org/1999/xlink" x="0px" y="0px"
	 viewBox="0 0 45 44" style="enable-background:new 0 0 45 44;" xml:space="preserve">
<style type="text/css">
	.st0{fill:#3A5BA0;}
	.st1{fill:#FFFFFF;}
</style>
<path class="st0" d="M41.1,0H3.8C1.6,0,0,1.6,0,3.7v36.6c0,2,1.6,3.7,3.8,3.7h37.4c2,0,3.8-1.6,3.8-3.7V3.7C44.9,1.6,43.3,0,41.1,0z
	"/>
<path id="f_1_" class="st1" d="M29,22.8l0.9-4.6h-4.7v-3.7c0-1.4,0.7-1.8,2.9-1.8h1.8V8.3c0,0-1.8,0-3.8,0c-3.9,0-6.5,2.2-6.5,6.4
	v3.7h-4.7v4.6h4.7v12.8h5.6V22.8H29z"/>
</svg>
