<?xml version="1.0" encoding="utf-8"?>
<!-- Generator: Adobe Illustrator 21.0.2, SVG Export Plug-In . SVG Version: 6.00 Build 0)  -->
<svg version="1.1" id="Layer_1" xmlns="http://www.w3.org/2000/svg" xmlns:xlink="http://www.w3.org/1999/xlink" x="0px" y="0px"
	 viewBox="0 0 45 44" style="enable-background:new 0 0 45 44;" xml:space="preserve">
<style type="text/css">
	.st0{fill:url(#SVGID_1_);}
	.st1{fill:#FFFFFF;}
</style>
<linearGradient id="SVGID_1_" gradientUnits="userSpaceOnUse" x1="-587.9724" y1="-86.5151" x2="-555.0276" y2="-39.4649" gradientTransform="matrix(1 0 0 -1 594 -40.99)">
	<stop  offset="0" style="stop-color:#FFB900"/>
	<stop  offset="1" style="stop-color:#9100EB"/>
</linearGradient>
<path class="st0" d="M45,38.5c0,3-2.6,5.5-5.6,5.5H5.6C2.6,44,0,41.5,0,38.5v-33C0,2.5,2.6,0,5.6,0h33.8C42.4,0,45,2.5,45,5.5V38.5z
	"/>
<g>
	<g>
		<path class="st1" d="M30.3,38.5H14.7c-5,0-9.1-4-9.1-8.9V14.4c0-4.9,4.1-8.9,9.1-8.9h15.4c5,0,9.1,4,9.1,8.9v15.1
			C39.4,34.5,35.3,38.5,30.3,38.5z M14.7,8.3c-3.5,0-6.3,2.8-6.3,6.2v15.1c0,3.4,2.9,6.2,6.3,6.2h15.4c3.5,0,6.3-2.8,6.3-6.2V14.4
			c0-3.4-2.9-6.2-6.3-6.2H14.7V8.3z"/>
	</g>
	<g>
		<path class="st1" d="M22.5,30.3c-4.6,0-8.5-3.7-8.5-8.3c0-4.5,3.8-8.3,8.5-8.3c4.6,0,8.5,3.7,8.5,8.3C31,26.5,27.1,30.3,22.5,30.3
			z M22.5,16.5c-3.1,0-5.6,2.5-5.6,5.5s2.6,5.5,5.6,5.5s5.6-2.5,5.6-5.5S25.6,16.5,22.5,16.5z"/>
	</g>
	<g>
		<ellipse class="st1" cx="31.5" cy="13.2" rx="1.9" ry="1.9"/>
	</g>
</g>
</svg>
