<?xml version="1.0" encoding="utf-8"?>
<!-- Generator: Adobe Illustrator 21.0.2, SVG Export Plug-In . SVG Version: 6.00 Build 0)  -->
<svg version="1.1" id="Layer_1" xmlns="http://www.w3.org/2000/svg" xmlns:xlink="http://www.w3.org/1999/xlink" x="0px" y="0px"
	 viewBox="0 0 45 44" style="enable-background:new 0 0 45 44;" xml:space="preserve">
<style type="text/css">
	.st0{fill:#61A8DE;}
	.st1{fill:#FFFFFF;}
</style>
<path class="st0" d="M45,38.5c0,3-2.6,5.5-5.6,5.5H5.6C2.6,44,0,41.5,0,38.5v-33C0,2.5,2.6,0,5.6,0h33.8C42.4,0,45,2.5,45,5.5V38.5z
	"/>
<g>
	<path class="st1" d="M36.4,8.9L7.2,20.1c-0.9,0.4-0.9,1.7,0.1,2l7.5,2.1l2.8,8.6c0.3,0.9,1.4,1.2,2.1,0.5l3.8-3.8l7.6,5.4
		c0.9,0.7,2.2,0.2,2.5-0.9l5-23.3C38.7,9.5,37.5,8.5,36.4,8.9z M32.7,14.1L19.2,25.8c-0.1,0.1-0.2,0.3-0.2,0.4l-0.6,4.6
		c0,0.1-0.2,0.2-0.3,0L16,24c-0.1-0.3,0-0.7,0.3-0.8l16.1-9.7C32.7,13.3,33.1,13.8,32.7,14.1z"/>
</g>
</svg>
