<?xml version="1.0" encoding="utf-8"?>
<!-- Generator: Adobe Illustrator 21.0.2, SVG Export Plug-In . SVG Version: 6.00 Build 0)  -->
<svg version="1.1" id="Layer_1" xmlns="http://www.w3.org/2000/svg" xmlns:xlink="http://www.w3.org/1999/xlink" x="0px" y="0px"
	 viewBox="0 0 45 44" style="enable-background:new 0 0 45 44;" xml:space="preserve">
<style type="text/css">
	.st0{fill:#1BD741;}
	.st1{fill:#FFFFFF;}
</style>
<path class="st0" d="M41.1,0H3.8C1.6,0,0,1.6,0,3.7v36.6c0,2,1.6,3.7,3.8,3.7h37.4c2,0,3.8-1.6,3.8-3.7V3.7C44.9,1.6,43.3,0,41.1,0z
	"/>
<g>
	<path class="st1" d="M7.6,36.7l2.1-7.3c-1.3-2.2-2-4.8-2-7.4c0-8.1,6.7-14.7,15-14.7s15,6.6,15,14.7s-6.8,14.6-15.1,14.6
		c-2.6,0-5.1-0.6-7.3-1.9L7.6,36.7z M15.6,32l0.4,0.3c1.9,1.2,4.2,1.8,6.4,1.8c6.8,0,12.4-5.5,12.4-12.2S29.3,9.8,22.4,9.8
		S10.1,15.3,10.1,22c0,2.3,0.7,4.6,1.9,6.6l0.3,0.5l-1.2,4.2L15.6,32z"/>
	<path class="st1" d="M18.4,15.2l-1-0.1c-0.3,0-0.6,0.1-0.8,0.3c-0.5,0.4-1.2,1.2-1.4,2.2c-0.3,1.5,0.2,3.4,1.5,5.2
		c1.4,1.8,4,4.8,8.5,6.1c1.4,0.4,2.7,0.1,3.5-0.4c0.7-0.4,1.2-1.2,1.3-2l0.2-0.7c0-0.2-0.1-0.5-0.3-0.6l-3.3-1.5
		c-0.2-0.1-0.5,0-0.6,0.1l-1.2,1.7c-0.1,0.1-0.3,0.2-0.4,0.1c-0.9-0.3-3.9-1.5-5.5-4.6c-0.1-0.1-0.1-0.3,0-0.4l1.2-1.4
		c0.1-0.1,0.2-0.3,0.1-0.5l-1.3-3.2C18.7,15.3,18.6,15.2,18.4,15.2z"/>
</g>
</svg>
