<?xml version="1.0" encoding="utf-8"?>
<!-- Generator: Adobe Illustrator 21.0.2, SVG Export Plug-In . SVG Version: 6.00 Build 0)  -->
<svg version="1.1" id="Capa_1" xmlns="http://www.w3.org/2000/svg" xmlns:xlink="http://www.w3.org/1999/xlink" x="0px" y="0px"
	 viewBox="0 0 16 17" style="enable-background:new 0 0 16 17;" xml:space="preserve">
<g>
	<path d="M15.5,11.6c0.3-0.4,0.5-0.9,0.5-1.4c0-0.5-0.3-1-0.4-1.2c0.2-0.6,0.3-1.5-0.4-2.2c-0.5-0.5-1.5-0.7-2.8-0.7
		c-0.9,0-1.7,0.2-1.7,0.2h0c-0.2,0-0.4,0.1-0.5,0.1c0-0.2,0-0.8,0.4-2.1C11,2.8,11,1.7,10.5,0.9C9.9,0.1,9,0,8.7,0
		C8.4,0,8.2,0.1,8,0.3C7.7,0.8,7.7,1.6,7.7,2C7.3,3.3,6,6.4,4.9,7.2c0,0,0,0-0.1,0C4.6,7.6,4.4,8,4.2,8.3C4,8.2,3.8,8.1,3.5,8.1H1.4
		C0.6,8.1,0,8.8,0,9.6v5.8c0,0.8,0.6,1.5,1.4,1.5h2.1c0.3,0,0.6-0.1,0.8-0.3l0.8,0.1c0.1,0,2.3,0.3,4.6,0.3c0.4,0,0.8,0,1.2,0
		c0.6,0,1.2,0,1.6-0.1c1.1-0.2,1.8-0.7,2.1-1.4c0.3-0.5,0.3-1,0.2-1.4c0.7-0.6,0.8-1.3,0.8-1.8C15.6,12,15.6,11.7,15.5,11.6z
		 M1.4,15.9c-0.3,0-0.5-0.2-0.5-0.5V9.6c0-0.3,0.2-0.5,0.5-0.5h2.1C3.8,9.1,4,9.3,4,9.6v5.8c0,0.3-0.2,0.5-0.5,0.5L1.4,15.9
		L1.4,15.9z M14.6,11.1c-0.1,0.2-0.2,0.4-0.1,0.6c0,0,0.1,0.3,0.2,0.6c0,0.5-0.2,0.9-0.6,1.2c-0.2,0.1-0.2,0.3-0.2,0.5
		c0,0,0.1,0.5-0.1,0.9c-0.2,0.4-0.7,0.7-1.5,0.9c-0.6,0.1-1.5,0.2-2.5,0.1c0,0,0,0,0,0c-2.2,0-4.5-0.2-4.5-0.3h0l-0.3,0
		c0-0.1,0-0.2,0-0.3V9.6c0-0.2,0-0.3-0.1-0.4C5,8.9,5.1,8.4,5.5,7.9c1.5-1.3,3.1-5.5,3.1-5.7c0-0.1,0-0.2,0-0.2c-0.1-0.4,0-0.9,0-1
		c0.2,0,0.7,0.1,1,0.5C10,1.9,10,2.8,9.7,4C9.1,5.8,9,6.8,9.5,7.2c0.2,0.2,0.5,0.2,0.8,0.1c0.2,0,0.4-0.1,0.6-0.1c0,0,0,0,0,0
		c1.1-0.2,2.9-0.4,3.6,0.2C15,8,14.6,8.7,14.6,8.7c-0.1,0.2-0.1,0.5,0.1,0.6c0,0,0.4,0.4,0.4,0.8C15.1,10.5,14.9,10.8,14.6,11.1z"/>
</g>
</svg>
